<svg width="163" height="54" viewBox="0 0 163 54" fill="none" xmlns="http://www.w3.org/2000/svg">
<path d="M76.1548 27.6378C76.098 27.0649 75.8542 26.6198 75.4233 26.3026C74.9924 25.9853 74.4077 25.8267 73.669 25.8267C73.1671 25.8267 72.7434 25.8977 72.3977 26.0398C72.0521 26.1771 71.7869 26.3688 71.6023 26.6151C71.4223 26.8613 71.3324 27.1406 71.3324 27.4531C71.3229 27.7135 71.3774 27.9408 71.4957 28.1349C71.6188 28.3291 71.7869 28.4972 72 28.6392C72.2131 28.7765 72.4593 28.8973 72.7386 29.0014C73.018 29.1009 73.3163 29.1861 73.6335 29.2571L74.9403 29.5696C75.5748 29.7116 76.1572 29.901 76.6875 30.1378C77.2178 30.3745 77.6771 30.6657 78.0653 31.0114C78.4536 31.357 78.7543 31.7642 78.9673 32.233C79.1851 32.7017 79.2964 33.2391 79.3011 33.8452C79.2964 34.7353 79.0691 35.5071 78.6193 36.1605C78.1742 36.8092 77.5303 37.3134 76.6875 37.6733C75.8494 38.0284 74.8385 38.206 73.6548 38.206C72.4806 38.206 71.4579 38.026 70.5866 37.6662C69.7202 37.3063 69.0431 36.7737 68.5554 36.0682C68.0724 35.358 67.8191 34.4796 67.7955 33.4332H70.7713C70.8045 33.9209 70.9441 34.3281 71.1903 34.6548C71.4413 34.9768 71.7751 35.2206 72.1918 35.3864C72.6132 35.5473 73.089 35.6278 73.6193 35.6278C74.1402 35.6278 74.5923 35.5521 74.9759 35.4006C75.3641 35.2491 75.6648 35.0384 75.8778 34.7685C76.0909 34.4986 76.1974 34.1884 76.1974 33.8381C76.1974 33.5114 76.1004 33.2367 75.9062 33.0142C75.7169 32.7917 75.4375 32.6023 75.0682 32.446C74.7036 32.2898 74.2562 32.1477 73.7259 32.0199L72.142 31.6222C70.9157 31.3239 69.9474 30.8575 69.2372 30.223C68.527 29.5885 68.1742 28.7339 68.179 27.6591C68.1742 26.7784 68.4086 26.009 68.8821 25.3509C69.3603 24.6927 70.0161 24.179 70.8494 23.8097C71.6828 23.4403 72.6297 23.2557 73.6903 23.2557C74.7699 23.2557 75.7121 23.4403 76.517 23.8097C77.3267 24.179 77.9564 24.6927 78.4062 25.3509C78.8561 26.009 79.0881 26.7713 79.1023 27.6378H76.1548ZM90.354 23.4545H93.4293V32.9006C93.4293 33.9612 93.176 34.8892 92.6694 35.6847C92.1675 36.4801 91.4644 37.1004 90.56 37.5455C89.6557 37.9858 88.6022 38.206 87.3995 38.206C86.1921 38.206 85.1362 37.9858 84.2319 37.5455C83.3275 37.1004 82.6244 36.4801 82.1225 35.6847C81.6206 34.8892 81.3697 33.9612 81.3697 32.9006V23.4545H84.445V32.6378C84.445 33.1918 84.5657 33.6842 84.8072 34.1151C85.0534 34.5459 85.399 34.8845 85.8441 35.1307C86.2892 35.3769 86.8076 35.5 87.3995 35.5C87.9961 35.5 88.5146 35.3769 88.9549 35.1307C89.4 34.8845 89.7433 34.5459 89.9847 34.1151C90.2309 33.6842 90.354 33.1918 90.354 32.6378V23.4545ZM95.9595 38V23.4545H101.698C102.801 23.4545 103.741 23.6652 104.518 24.0866C105.294 24.5033 105.886 25.0833 106.293 25.8267C106.705 26.5653 106.911 27.4176 106.911 28.3835C106.911 29.3494 106.703 30.2017 106.286 30.9403C105.87 31.679 105.266 32.2543 104.475 32.6662C103.689 33.0781 102.737 33.2841 101.62 33.2841H97.9624V30.8196H101.123C101.715 30.8196 102.202 30.7178 102.586 30.5142C102.974 30.3059 103.263 30.0194 103.452 29.6548C103.647 29.2855 103.744 28.8617 103.744 28.3835C103.744 27.9006 103.647 27.4792 103.452 27.1193C103.263 26.7547 102.974 26.473 102.586 26.2741C102.198 26.0705 101.705 25.9688 101.109 25.9688H99.0348V38H95.9595ZM122.275 30.7273C122.275 32.3134 121.975 33.6629 121.373 34.7756C120.777 35.8883 119.962 36.7382 118.93 37.3253C117.903 37.9077 116.747 38.1989 115.464 38.1989C114.172 38.1989 113.011 37.9053 111.984 37.3182C110.957 36.7311 110.145 35.8812 109.548 34.7685C108.951 33.6558 108.653 32.3087 108.653 30.7273C108.653 29.1411 108.951 27.7917 109.548 26.679C110.145 25.5663 110.957 24.7187 111.984 24.1364C113.011 23.5492 114.172 23.2557 115.464 23.2557C116.747 23.2557 117.903 23.5492 118.93 24.1364C119.962 24.7187 120.777 25.5663 121.373 26.679C121.975 27.7917 122.275 29.1411 122.275 30.7273ZM119.157 30.7273C119.157 29.6998 119.003 28.8333 118.696 28.1278C118.393 27.4223 117.964 26.8873 117.41 26.5227C116.856 26.1581 116.208 25.9759 115.464 25.9759C114.721 25.9759 114.072 26.1581 113.518 26.5227C112.964 26.8873 112.533 27.4223 112.225 28.1278C111.922 28.8333 111.771 29.6998 111.771 30.7273C111.771 31.7547 111.922 32.6212 112.225 33.3267C112.533 34.0322 112.964 34.5672 113.518 34.9318C114.072 35.2964 114.721 35.4787 115.464 35.4787C116.208 35.4787 116.856 35.2964 117.41 34.9318C117.964 34.5672 118.393 34.0322 118.696 33.3267C119.003 32.6212 119.157 31.7547 119.157 30.7273ZM124.553 38V23.4545H130.292C131.39 23.4545 132.328 23.651 133.104 24.044C133.886 24.4323 134.48 24.9839 134.887 25.6989C135.299 26.4091 135.505 27.2448 135.505 28.206C135.505 29.1719 135.297 30.0028 134.88 30.6989C134.463 31.3902 133.86 31.9205 133.069 32.2898C132.283 32.6591 131.331 32.8438 130.214 32.8438H126.371V30.3722H129.717C130.304 30.3722 130.791 30.2917 131.18 30.1307C131.568 29.9697 131.857 29.7282 132.046 29.4062C132.24 29.0843 132.337 28.6842 132.337 28.206C132.337 27.723 132.24 27.3158 132.046 26.9844C131.857 26.6529 131.566 26.402 131.173 26.2315C130.784 26.0563 130.294 25.9688 129.702 25.9688H127.629V38H124.553ZM132.408 31.3807L136.023 38H132.629L129.092 31.3807H132.408ZM137.124 25.9901V23.4545H149.07V25.9901H144.617V38H141.577V25.9901H137.124ZM151.038 38V23.4545H160.839V25.9901H154.113V29.456H160.335V31.9915H154.113V35.4645H160.867V38H151.038Z" fill="black"/>
<g clip-path="url(#clip0_415_116)">
<path d="M29.6577 38.4108V24.6097H37.7096V27.4553H32.6876V29.9491H36.9884V32.7761H32.6876V35.5075H37.7821V38.4108H29.6584H29.6577Z" fill="black"/>
<path d="M39.0522 38.4108V37.2972L43.7766 31.3201L43.8126 31.2723C44.6899 30.1745 45.1289 29.3242 45.1289 28.7214C45.1289 28.2328 44.9742 27.8312 44.6642 27.5173C44.3542 27.2034 43.9533 27.0465 43.4608 27.0465C43.0159 27.0465 42.6311 27.2006 42.3064 27.508C41.9817 27.8162 41.7655 28.2328 41.657 28.7592L39.1593 27.4552C39.5382 26.4081 40.1164 25.5977 40.8948 25.0235C41.6732 24.4492 42.5856 24.1617 43.6315 24.1617C44.8877 24.1617 45.9432 24.5805 46.7963 25.4179C47.6494 26.2554 48.0767 27.2997 48.0767 28.5495C48.0767 29.3171 47.8847 30.1124 47.4999 30.9335C47.1151 31.7553 46.52 32.6355 45.7145 33.575L44.0017 35.5831H48.6901L48.2482 38.41H39.0515L39.0522 38.4108Z" fill="#00C0FF"/>
<path d="M50.8552 38.4108V24.6097H58.9071V27.4553H53.8851V29.9491H58.1859V32.7761H53.8851V35.5075H58.9796V38.4108H50.856H50.8552Z" fill="black"/>
<path d="M30.4214 50.1547C25.0879 51.6684 19.7442 50.1697 14.6717 46.976C5.76154 41.3649 3.8149 30.5071 8.78118 21.5703C14.0164 12.1507 25.6691 9.51343 35.0915 15.0283C37.0499 16.1746 38.7312 17.5977 40.1157 19.2149C42.1451 21.586 45.3421 22.686 48.4197 21.9399L48.6813 21.8764C52.1326 21.0403 53.8381 17.2667 52.1612 14.2136C49.7484 9.82017 46.0523 6.01733 41.2224 3.3908C28.3846 -3.58997 11.9525 0.545991 4.18796 12.7021C-3.99802 25.5173 0.199417 42.3272 13.4396 50.0762C19.0193 53.3419 25.3056 54.4697 31.2957 53.7078C32.3563 53.573 33.0789 52.5936 32.8656 51.5735C32.6399 50.4914 31.5112 49.8451 30.4221 50.1547H30.4214Z" fill="url(#paint0_linear_415_116)"/>
<path style="mix-blend-mode:multiply" opacity="0.6" d="M30.4214 50.1547C25.0879 51.6684 19.7442 50.1697 14.6717 46.976C5.76154 41.3649 3.8149 30.5071 8.78118 21.5703C14.0164 12.1507 25.6691 9.51343 35.0915 15.0283C37.0499 16.1746 38.7312 17.5977 40.1157 19.2149C42.1451 21.586 45.3421 22.686 48.4197 21.9399L48.6813 21.8764C52.1326 21.0403 53.8381 17.2667 52.1612 14.2136C49.7484 9.82017 46.0523 6.01733 41.2224 3.3908C28.3846 -3.58997 11.9525 0.545991 4.18796 12.7021C-3.99802 25.5173 0.199417 42.3272 13.4396 50.0762C19.0193 53.3419 25.3056 54.4697 31.2957 53.7078C32.3563 53.573 33.0789 52.5936 32.8656 51.5735C32.6399 50.4914 31.5112 49.8451 30.4221 50.1547H30.4214Z" fill="url(#paint1_linear_415_116)"/>
<path d="M7.7954 21.6929C13.5342 12.555 25.6698 9.51327 35.0923 15.0274C37.0506 16.1737 38.7319 17.5969 40.1164 19.214C42.1459 21.5852 45.3429 22.6851 48.4204 21.939L48.682 21.8755C52.1334 21.0395 53.8389 17.2659 52.1619 14.2128C49.7492 9.8193 46.0531 6.01646 41.2231 3.38994C28.3846 -3.59012 11.9525 0.545841 4.18796 12.7019C-3.99802 25.5171 0.199417 42.327 13.4396 50.0761C17.1379 52.2403 21.1463 53.4601 25.1729 53.819C1.85215 49.7301 3.34803 28.7742 7.7954 21.6929Z" fill="url(#paint2_linear_415_116)"/>
<path style="mix-blend-mode:multiply" opacity="0.6" d="M7.7954 21.6929C13.5342 12.555 25.6698 9.51327 35.0923 15.0274C37.0506 16.1737 38.7319 17.5969 40.1164 19.214C42.1459 21.5852 45.3429 22.6851 48.4204 21.939L48.682 21.8755C52.1334 21.0395 53.8389 17.2659 52.1619 14.2128C49.7492 9.8193 46.0531 6.01646 41.2231 3.38994C28.3846 -3.59012 11.9525 0.545841 4.18796 12.7019C-3.99802 25.5171 0.199417 42.327 13.4396 50.0761C17.1379 52.2403 21.1463 53.4601 25.1729 53.819C1.85215 49.7301 3.34803 28.7742 7.7954 21.6929Z" fill="url(#paint3_linear_415_116)"/>
<path d="M20.7793 8.56599C32.3235 8.20147 37.7816 14.6636 40.6172 18.8959C42.3491 21.481 45.3409 22.6852 48.4184 21.9397L48.6801 21.8762C52.1314 21.0402 53.8369 17.2666 52.16 14.2135C49.7472 9.82005 46.0511 6.0172 41.2212 3.39068C28.3826 -3.59009 11.9506 0.545869 4.18601 12.7019C1.15686 17.445 -0.172658 22.7344 0.020833 27.9097C-0.199776 16.7552 9.23291 8.93122 20.7793 8.5667V8.56599Z" fill="url(#paint4_linear_415_116)"/>
<path d="M48.6797 20.8761L48.4181 20.9395C45.3413 21.685 42.3495 20.4816 40.6169 17.8957C37.7812 13.6642 32.3232 7.20128 20.779 7.5658C9.23182 7.93032 -0.200131 15.755 0.0197451 26.9095C0.0138818 26.749 0.0138819 26.5878 0.0109502 26.4266C0.00142221 26.9216 0.00142213 27.416 0.0197451 27.9096C-0.200864 16.7551 9.23182 8.93114 20.7782 8.56662C32.3224 8.2021 37.7805 14.6643 40.6162 18.8965C42.348 21.4817 45.3398 22.6858 48.4174 21.9404L48.679 21.8769C51.3959 21.2185 53.0296 18.7396 52.7841 16.2243C52.5745 18.3679 51.0339 20.3061 48.679 20.8761H48.6797Z" fill="url(#paint5_linear_415_116)"/>
<path d="M38.419 50.3436C38.419 51.4207 37.5219 52.2946 36.4144 52.2946C35.307 52.2946 34.4099 51.4214 34.4099 50.3436C34.4099 49.2657 35.307 48.3926 36.4144 48.3926C37.5219 48.3926 38.419 49.2657 38.419 50.3436Z" fill="url(#paint6_linear_415_116)"/>
<path d="M30.4214 50.1545C25.0879 51.669 19.7442 50.1695 14.6717 46.9759C9.03113 43.4241 6.18519 37.7688 6.11263 31.8302C5.97191 38.0106 8.82005 43.9584 14.6717 47.6436C19.7442 50.8379 25.0879 52.3366 30.4214 50.8222C31.5105 50.5133 32.6392 51.1596 32.8649 52.2411C32.8664 52.2482 32.8671 52.2553 32.8679 52.2625C32.9111 52.0413 32.914 51.8088 32.8649 51.5734C32.6392 50.4912 31.5105 49.8449 30.4214 50.1545Z" fill="url(#paint7_linear_415_116)"/>
<path d="M42.5799 47.9182C42.5799 48.7057 41.9239 49.3441 41.1148 49.3441C40.3056 49.3441 39.6497 48.7057 39.6497 47.9182C39.6497 47.1306 40.3056 46.4922 41.1148 46.4922C41.9239 46.4922 42.5799 47.1306 42.5799 47.9182Z" fill="url(#paint8_linear_415_116)"/>
<path d="M44.412 46.4922C44.9338 46.4922 45.3568 46.0805 45.3568 45.5727C45.3568 45.0649 44.9338 44.6532 44.412 44.6532C43.8903 44.6532 43.4673 45.0649 43.4673 45.5727C43.4673 46.0805 43.8903 46.4922 44.412 46.4922Z" fill="url(#paint9_linear_415_116)"/>
<path d="M7.79552 21.6929C11.51 15.7778 17.9054 12.4223 24.5098 12.2825C17.624 12.1541 10.8562 15.5381 6.99077 21.6929C2.64896 28.6059 1.12449 48.7378 22.75 53.4951C23.5555 53.637 24.3632 53.7462 25.1723 53.8182C1.85227 49.7301 3.34816 28.7742 7.79552 21.6929Z" fill="url(#paint10_linear_415_116)"/>
</g>
<defs>
<linearGradient id="paint0_linear_415_116" x1="-0.000671561" y1="26.9682" x2="52.8128" y2="26.9682" gradientUnits="userSpaceOnUse">
<stop stop-color="#FA71CD"/>
<stop offset="1" stop-color="#C471F5"/>
</linearGradient>
<linearGradient id="paint1_linear_415_116" x1="26.3522" y1="19.0258" x2="26.8611" y2="47.6927" gradientUnits="userSpaceOnUse">
<stop offset="0.11" stop-color="#666666"/>
<stop offset="0.29" stop-color="#7C7C7C" stop-opacity="0.85"/>
<stop offset="0.63" stop-color="#B6B6B6" stop-opacity="0.47"/>
<stop offset="1" stop-color="white" stop-opacity="0"/>
</linearGradient>
<linearGradient id="paint2_linear_415_116" x1="28.9203" y1="9.26289" x2="22.0017" y2="42.438" gradientUnits="userSpaceOnUse">
<stop stop-color="#764BA2"/>
<stop offset="1" stop-color="#667EEA"/>
</linearGradient>
<linearGradient id="paint3_linear_415_116" x1="40.6236" y1="19.453" x2="13.2525" y2="32.0368" gradientUnits="userSpaceOnUse">
<stop offset="0.11" stop-color="#666666"/>
<stop offset="0.29" stop-color="#7C7C7C" stop-opacity="0.85"/>
<stop offset="0.63" stop-color="#B6B6B6" stop-opacity="0.47"/>
<stop offset="1" stop-color="white" stop-opacity="0"/>
</linearGradient>
<linearGradient id="paint4_linear_415_116" x1="0.00177708" y1="13.9546" x2="52.8108" y2="13.9546" gradientUnits="userSpaceOnUse">
<stop stop-color="#4FACFE"/>
<stop offset="1" stop-color="#00F2FE"/>
</linearGradient>
<linearGradient id="paint5_linear_415_116" x1="0.00508677" y1="17.7302" x2="52.809" y2="17.7302" gradientUnits="userSpaceOnUse">
<stop stop-color="#00EDFF"/>
<stop offset="1" stop-color="#00F2FE" stop-opacity="0"/>
</linearGradient>
<linearGradient id="paint6_linear_415_116" x1="36.8432" y1="48.4439" x2="35.8814" y2="52.9425" gradientUnits="userSpaceOnUse">
<stop stop-color="#FA71CD"/>
<stop offset="1" stop-color="#C471F5"/>
</linearGradient>
<linearGradient id="paint7_linear_415_116" x1="15.121" y1="41.5616" x2="31.5181" y2="44.1" gradientUnits="userSpaceOnUse">
<stop stop-color="#FF99F5"/>
<stop offset="0.99" stop-color="#C471F5" stop-opacity="0"/>
</linearGradient>
<linearGradient id="paint8_linear_415_116" x1="41.3119" y1="46.4308" x2="40.9276" y2="49.4909" gradientUnits="userSpaceOnUse">
<stop stop-color="#FA71CD"/>
<stop offset="1" stop-color="#C471F5"/>
</linearGradient>
<linearGradient id="paint9_linear_415_116" x1="44.5769" y1="44.7531" x2="44.1922" y2="46.7786" gradientUnits="userSpaceOnUse">
<stop stop-color="#FA71CD"/>
<stop offset="1" stop-color="#C471F5"/>
</linearGradient>
<linearGradient id="paint10_linear_415_116" x1="13.6186" y1="46.4059" x2="20.6116" y2="15.496" gradientUnits="userSpaceOnUse">
<stop stop-color="#90A8FC"/>
<stop offset="1" stop-color="#667EEA" stop-opacity="0"/>
</linearGradient>
<clipPath id="clip0_415_116">
<rect width="59" height="54" fill="white"/>
</clipPath>
</defs>
</svg>
